<?xml version="1.0" encoding="UTF-8" standalone="no"?>
<!-- Created with Inkscape (http://www.inkscape.org/) -->

<svg
   xmlns:dc="http://purl.org/dc/elements/1.1/"
   xmlns:cc="http://creativecommons.org/ns#"
   xmlns:rdf="http://www.w3.org/1999/02/22-rdf-syntax-ns#"
   xmlns:svg="http://www.w3.org/2000/svg"
   xmlns="http://www.w3.org/2000/svg"
   xmlns:sodipodi="http://sodipodi.sourceforge.net/DTD/sodipodi-0.dtd"
   xmlns:inkscape="http://www.inkscape.org/namespaces/inkscape"
   id="svg2"
   version="1.1"
   inkscape:version="0.48.4 r9939"
   width="900"
   height="630"
   xml:space="preserve"
   sodipodi:docname="tall.svg"><metadata
     id="metadata8"><rdf:RDF><cc:Work
         rdf:about=""><dc:format>image/svg+xml</dc:format><dc:type
           rdf:resource="http://purl.org/dc/dcmitype/StillImage" /><dc:title></dc:title></cc:Work></rdf:RDF></metadata><defs
     id="defs6"><clipPath
       clipPathUnits="userSpaceOnUse"
       id="clipPath24"><path
         d="m 44.64,73.44 630.72,0 0,371.52 -630.72,0 0,-371.52 z"
         id="path26" /></clipPath><clipPath
       clipPathUnits="userSpaceOnUse"
       id="clipPath164"><path
         d="m 44.64,73.44 630.72,0 0,371.52 -630.72,0 0,-371.52 z"
         id="path166" /></clipPath><clipPath
       clipPathUnits="userSpaceOnUse"
       id="clipPath208"><path
         d="m 44.64,73.44 630.72,0 0,371.52 -630.72,0 0,-371.52 z"
         id="path210" /></clipPath><clipPath
       clipPathUnits="userSpaceOnUse"
       id="clipPath224"><path
         d="m 44.64,73.44 630.72,0 0,371.52 -630.72,0 0,-371.52 z"
         id="path226" /></clipPath><clipPath
       clipPathUnits="userSpaceOnUse"
       id="clipPath240"><path
         d="m 44.64,73.44 630.72,0 0,371.52 -630.72,0 0,-371.52 z"
         id="path242" /></clipPath></defs><sodipodi:namedview
     pagecolor="#ffffff"
     bordercolor="#666666"
     borderopacity="1"
     objecttolerance="10"
     gridtolerance="10"
     guidetolerance="10"
     inkscape:pageopacity="0"
     inkscape:pageshadow="2"
     inkscape:window-width="1918"
     inkscape:window-height="1063"
     id="namedview4"
     showgrid="false"
     inkscape:zoom="1.3936508"
     inkscape:cx="450"
     inkscape:cy="315"
     inkscape:window-x="0"
     inkscape:window-y="15"
     inkscape:window-maximized="0"
     inkscape:current-layer="g238" /><g
     id="g10"
     inkscape:groupmode="layer"
     inkscape:label="tall"
     transform="matrix(1.25,0,0,-1.25,0,630)"><g
       id="g12" /><g
       id="g14"><text
         transform="matrix(1,0,0,-1,199.95,469.45)"
         id="text16"><tspan
           style="fill:#000000;fill-opacity:1;fill-rule:nonzero;stroke:none;font-family:Helvetica;font-variant:normal;font-weight:bold;font-size:14;writing-mode:lr;-inkscape-font-specification:Helvetica-Bold"
           x="0 10.108 17.892 25.676 34.23 46.396 54.95 58.842 66.626 71.288 79.072 87.626 91.518 99.302 104.748 109.914 118.468 123.704 131.488 135.38 139.762 148.316 153.762 157.654 165.438 173.222 180.866 189.42 193.312 201.866 210.42 218.204 222.096 226.758 230.65 239.204 247.758 251.65 260.204 264.866 268.758 273.42 281.974 289.758 293.65 302.204 307.65 311.542"
           y="0"
           sodipodi:role="line"
           id="tspan18">Accumulated errors for each position of the grid</tspan></text>
</g><g
       id="g20"><g
         id="g22"
         clip-path="url(#clipPath24)"><path
           d="M 68,87.2 192.77,254.79"
           style="fill:none;stroke:#bebebe;stroke-opacity:1;stroke-width:0.75;stroke-linecap:round;stroke-linejoin:round;stroke-miterlimit:10;stroke-dasharray:none"
           id="path28" /><path
           d="M 124.71,87.2 249.49,254.79"
           style="fill:none;stroke:#bebebe;stroke-opacity:1;stroke-width:0.75;stroke-linecap:round;stroke-linejoin:round;stroke-miterlimit:10;stroke-dasharray:none"
           id="path30" /><path
           d="M 181.43,87.2 306.2,254.79"
           style="fill:none;stroke:#bebebe;stroke-opacity:1;stroke-width:0.75;stroke-linecap:round;stroke-linejoin:round;stroke-miterlimit:10;stroke-dasharray:none"
           id="path32" /><path
           d="M 238.14,87.2 362.92,254.79"
           style="fill:none;stroke:#bebebe;stroke-opacity:1;stroke-width:0.75;stroke-linecap:round;stroke-linejoin:round;stroke-miterlimit:10;stroke-dasharray:none"
           id="path34" /><path
           d="M 294.86,87.2 419.63,254.79"
           style="fill:none;stroke:#bebebe;stroke-opacity:1;stroke-width:0.75;stroke-linecap:round;stroke-linejoin:round;stroke-miterlimit:10;stroke-dasharray:none"
           id="path36" /><path
           d="M 351.57,87.2 476.35,254.79"
           style="fill:none;stroke:#bebebe;stroke-opacity:1;stroke-width:0.75;stroke-linecap:round;stroke-linejoin:round;stroke-miterlimit:10;stroke-dasharray:none"
           id="path38" /><path
           d="M 408.29,87.2 533.06,254.79"
           style="fill:none;stroke:#bebebe;stroke-opacity:1;stroke-width:0.75;stroke-linecap:round;stroke-linejoin:round;stroke-miterlimit:10;stroke-dasharray:none"
           id="path40" /><path
           d="M 465,87.2 589.78,254.79"
           style="fill:none;stroke:#bebebe;stroke-opacity:1;stroke-width:0.75;stroke-linecap:round;stroke-linejoin:round;stroke-miterlimit:10;stroke-dasharray:none"
           id="path42" /><path
           d="M 521.72,87.2 646.49,254.79"
           style="fill:none;stroke:#bebebe;stroke-opacity:1;stroke-width:0.75;stroke-linecap:round;stroke-linejoin:round;stroke-miterlimit:10;stroke-dasharray:none"
           id="path44" /><path
           d="m 68,87.2 453.72,0"
           style="fill:none;stroke:#bebebe;stroke-opacity:1;stroke-width:0.75;stroke-linecap:round;stroke-linejoin:round;stroke-miterlimit:10;stroke-dasharray:none"
           id="path46" /><path
           d="m 88.8,115.13 453.72,0"
           style="fill:none;stroke:#bebebe;stroke-opacity:1;stroke-width:0.75;stroke-linecap:round;stroke-linejoin:round;stroke-miterlimit:10;stroke-dasharray:none"
           id="path48" /><path
           d="m 109.59,143.06 453.72,0"
           style="fill:none;stroke:#bebebe;stroke-opacity:1;stroke-width:0.75;stroke-linecap:round;stroke-linejoin:round;stroke-miterlimit:10;stroke-dasharray:none"
           id="path50" /><path
           d="m 130.39,170.99 453.72,0"
           style="fill:none;stroke:#bebebe;stroke-opacity:1;stroke-width:0.75;stroke-linecap:round;stroke-linejoin:round;stroke-miterlimit:10;stroke-dasharray:none"
           id="path52" /><path
           d="m 151.18,198.93 453.72,0"
           style="fill:none;stroke:#bebebe;stroke-opacity:1;stroke-width:0.75;stroke-linecap:round;stroke-linejoin:round;stroke-miterlimit:10;stroke-dasharray:none"
           id="path54" /><path
           d="m 171.98,226.86 453.72,0"
           style="fill:none;stroke:#bebebe;stroke-opacity:1;stroke-width:0.75;stroke-linecap:round;stroke-linejoin:round;stroke-miterlimit:10;stroke-dasharray:none"
           id="path56" /><path
           d="m 192.77,254.79 453.72,0"
           style="fill:none;stroke:#bebebe;stroke-opacity:1;stroke-width:0.75;stroke-linecap:round;stroke-linejoin:round;stroke-miterlimit:10;stroke-dasharray:none"
           id="path58" /><path
           d="m 517.18,87.2 9.08,0"
           style="fill:none;stroke:#000000;stroke-opacity:1;stroke-width:0.75;stroke-linecap:round;stroke-linejoin:round;stroke-miterlimit:10;stroke-dasharray:none"
           id="path60" /><path
           d="m 537.98,115.13 9.07,0"
           style="fill:none;stroke:#000000;stroke-opacity:1;stroke-width:0.75;stroke-linecap:round;stroke-linejoin:round;stroke-miterlimit:10;stroke-dasharray:none"
           id="path62" /><path
           d="m 558.77,143.06 9.08,0"
           style="fill:none;stroke:#000000;stroke-opacity:1;stroke-width:0.75;stroke-linecap:round;stroke-linejoin:round;stroke-miterlimit:10;stroke-dasharray:none"
           id="path64" /><path
           d="m 579.57,170.99 9.07,0"
           style="fill:none;stroke:#000000;stroke-opacity:1;stroke-width:0.75;stroke-linecap:round;stroke-linejoin:round;stroke-miterlimit:10;stroke-dasharray:none"
           id="path66" /><path
           d="m 600.36,198.93 9.08,0"
           style="fill:none;stroke:#000000;stroke-opacity:1;stroke-width:0.75;stroke-linecap:round;stroke-linejoin:round;stroke-miterlimit:10;stroke-dasharray:none"
           id="path68" /><path
           d="m 621.16,226.86 9.07,0"
           style="fill:none;stroke:#000000;stroke-opacity:1;stroke-width:0.75;stroke-linecap:round;stroke-linejoin:round;stroke-miterlimit:10;stroke-dasharray:none"
           id="path70" /><path
           d="m 641.96,254.79 9.07,0"
           style="fill:none;stroke:#000000;stroke-opacity:1;stroke-width:0.75;stroke-linecap:round;stroke-linejoin:round;stroke-miterlimit:10;stroke-dasharray:none"
           id="path72" /><path
           d="m 68,85.44 0,3.52"
           style="fill:none;stroke:#000000;stroke-opacity:1;stroke-width:0.75;stroke-linecap:round;stroke-linejoin:round;stroke-miterlimit:10;stroke-dasharray:none"
           id="path74" /><path
           d="m 124.71,85.44 0,3.52"
           style="fill:none;stroke:#000000;stroke-opacity:1;stroke-width:0.75;stroke-linecap:round;stroke-linejoin:round;stroke-miterlimit:10;stroke-dasharray:none"
           id="path76" /><path
           d="m 181.43,85.44 0,3.52"
           style="fill:none;stroke:#000000;stroke-opacity:1;stroke-width:0.75;stroke-linecap:round;stroke-linejoin:round;stroke-miterlimit:10;stroke-dasharray:none"
           id="path78" /><path
           d="m 238.14,85.44 0,3.52"
           style="fill:none;stroke:#000000;stroke-opacity:1;stroke-width:0.75;stroke-linecap:round;stroke-linejoin:round;stroke-miterlimit:10;stroke-dasharray:none"
           id="path80" /><path
           d="m 294.86,85.44 0,3.52"
           style="fill:none;stroke:#000000;stroke-opacity:1;stroke-width:0.75;stroke-linecap:round;stroke-linejoin:round;stroke-miterlimit:10;stroke-dasharray:none"
           id="path82" /><path
           d="m 351.57,85.44 0,3.52"
           style="fill:none;stroke:#000000;stroke-opacity:1;stroke-width:0.75;stroke-linecap:round;stroke-linejoin:round;stroke-miterlimit:10;stroke-dasharray:none"
           id="path84" /><path
           d="m 408.29,85.44 0,3.52"
           style="fill:none;stroke:#000000;stroke-opacity:1;stroke-width:0.75;stroke-linecap:round;stroke-linejoin:round;stroke-miterlimit:10;stroke-dasharray:none"
           id="path86" /><path
           d="m 465,85.44 0,3.52"
           style="fill:none;stroke:#000000;stroke-opacity:1;stroke-width:0.75;stroke-linecap:round;stroke-linejoin:round;stroke-miterlimit:10;stroke-dasharray:none"
           id="path88" /><path
           d="m 521.72,85.44 0,3.52"
           style="fill:none;stroke:#000000;stroke-opacity:1;stroke-width:0.75;stroke-linecap:round;stroke-linejoin:round;stroke-miterlimit:10;stroke-dasharray:none"
           id="path90" /><path
           d="m 63.46,87.2 9.08,0"
           style="fill:none;stroke:#000000;stroke-opacity:1;stroke-width:0.75;stroke-linecap:round;stroke-linejoin:round;stroke-miterlimit:10;stroke-dasharray:none"
           id="path92" /><path
           d="m 63.46,131.3 9.08,0"
           style="fill:none;stroke:#000000;stroke-opacity:1;stroke-width:0.75;stroke-linecap:round;stroke-linejoin:round;stroke-miterlimit:10;stroke-dasharray:none"
           id="path94" /><path
           d="m 63.46,175.41 9.08,0"
           style="fill:none;stroke:#000000;stroke-opacity:1;stroke-width:0.75;stroke-linecap:round;stroke-linejoin:round;stroke-miterlimit:10;stroke-dasharray:none"
           id="path96" /><path
           d="m 63.46,219.51 9.08,0"
           style="fill:none;stroke:#000000;stroke-opacity:1;stroke-width:0.75;stroke-linecap:round;stroke-linejoin:round;stroke-miterlimit:10;stroke-dasharray:none"
           id="path98" /><path
           d="m 63.46,263.61 9.08,0"
           style="fill:none;stroke:#000000;stroke-opacity:1;stroke-width:0.75;stroke-linecap:round;stroke-linejoin:round;stroke-miterlimit:10;stroke-dasharray:none"
           id="path100" /></g></g><g
       id="g102"><text
         transform="matrix(1,0,0,-1,61.05,69.12)"
         id="text104"><tspan
           style="fill:#000000;fill-opacity:1;fill-rule:nonzero;stroke:none;font-family:Helvetica;font-variant:normal;font-weight:normal;font-size:10;writing-mode:lr;-inkscape-font-specification:Helvetica"
           x="0 5.56 8.34"
           y="0"
           sodipodi:role="line"
           id="tspan106">0.0</tspan></text>
<text
         transform="matrix(1,0,0,-1,117.76,69.12)"
         id="text108"><tspan
           style="fill:#000000;fill-opacity:1;fill-rule:nonzero;stroke:none;font-family:Helvetica;font-variant:normal;font-weight:normal;font-size:10;writing-mode:lr;-inkscape-font-specification:Helvetica"
           x="0 5.56 8.34"
           y="0"
           sodipodi:role="line"
           id="tspan110">0.5</tspan></text>
<text
         transform="matrix(1,0,0,-1,174.48,69.12)"
         id="text112"><tspan
           style="fill:#000000;fill-opacity:1;fill-rule:nonzero;stroke:none;font-family:Helvetica;font-variant:normal;font-weight:normal;font-size:10;writing-mode:lr;-inkscape-font-specification:Helvetica"
           x="0 5.56 8.34"
           y="0"
           sodipodi:role="line"
           id="tspan114">1.0</tspan></text>
<text
         transform="matrix(1,0,0,-1,231.19,69.12)"
         id="text116"><tspan
           style="fill:#000000;fill-opacity:1;fill-rule:nonzero;stroke:none;font-family:Helvetica;font-variant:normal;font-weight:normal;font-size:10;writing-mode:lr;-inkscape-font-specification:Helvetica"
           x="0 5.56 8.34"
           y="0"
           sodipodi:role="line"
           id="tspan118">1.5</tspan></text>
<text
         transform="matrix(1,0,0,-1,287.91,69.12)"
         id="text120"><tspan
           style="fill:#000000;fill-opacity:1;fill-rule:nonzero;stroke:none;font-family:Helvetica;font-variant:normal;font-weight:normal;font-size:10;writing-mode:lr;-inkscape-font-specification:Helvetica"
           x="0 5.56 8.34"
           y="0"
           sodipodi:role="line"
           id="tspan122">2.0</tspan></text>
<text
         transform="matrix(1,0,0,-1,344.62,69.12)"
         id="text124"><tspan
           style="fill:#000000;fill-opacity:1;fill-rule:nonzero;stroke:none;font-family:Helvetica;font-variant:normal;font-weight:normal;font-size:10;writing-mode:lr;-inkscape-font-specification:Helvetica"
           x="0 5.56 8.34"
           y="0"
           sodipodi:role="line"
           id="tspan126">2.5</tspan></text>
<text
         transform="matrix(1,0,0,-1,401.34,69.12)"
         id="text128"><tspan
           style="fill:#000000;fill-opacity:1;fill-rule:nonzero;stroke:none;font-family:Helvetica;font-variant:normal;font-weight:normal;font-size:10;writing-mode:lr;-inkscape-font-specification:Helvetica"
           x="0 5.56 8.34"
           y="0"
           sodipodi:role="line"
           id="tspan130">3.0</tspan></text>
<text
         transform="matrix(1,0,0,-1,458.05,69.12)"
         id="text132"><tspan
           style="fill:#000000;fill-opacity:1;fill-rule:nonzero;stroke:none;font-family:Helvetica;font-variant:normal;font-weight:normal;font-size:10;writing-mode:lr;-inkscape-font-specification:Helvetica"
           x="0 5.56 8.34"
           y="0"
           sodipodi:role="line"
           id="tspan134">3.5</tspan></text>
<text
         transform="matrix(1,0,0,-1,514.77,69.12)"
         id="text136"><tspan
           style="fill:#000000;fill-opacity:1;fill-rule:nonzero;stroke:none;font-family:Helvetica;font-variant:normal;font-weight:normal;font-size:10;writing-mode:lr;-inkscape-font-specification:Helvetica"
           x="0 5.56 8.34"
           y="0"
           sodipodi:role="line"
           id="tspan138">4.0</tspan></text>
<text
         transform="matrix(0,1,1,0,48.96,80.25)"
         id="text140"><tspan
           style="fill:#000000;fill-opacity:1;fill-rule:nonzero;stroke:none;font-family:Helvetica;font-variant:normal;font-weight:normal;font-size:10;writing-mode:lr;-inkscape-font-specification:Helvetica"
           x="0 5.56 8.34"
           y="0"
           sodipodi:role="line"
           id="tspan142">0.0</tspan></text>
<text
         transform="matrix(0,1,1,0,48.96,124.35)"
         id="text144"><tspan
           style="fill:#000000;fill-opacity:1;fill-rule:nonzero;stroke:none;font-family:Helvetica;font-variant:normal;font-weight:normal;font-size:10;writing-mode:lr;-inkscape-font-specification:Helvetica"
           x="0 5.56 8.34"
           y="0"
           sodipodi:role="line"
           id="tspan146">0.5</tspan></text>
<text
         transform="matrix(0,1,1,0,48.96,168.46)"
         id="text148"><tspan
           style="fill:#000000;fill-opacity:1;fill-rule:nonzero;stroke:none;font-family:Helvetica;font-variant:normal;font-weight:normal;font-size:10;writing-mode:lr;-inkscape-font-specification:Helvetica"
           x="0 5.56 8.34"
           y="0"
           sodipodi:role="line"
           id="tspan150">1.0</tspan></text>
<text
         transform="matrix(0,1,1,0,48.96,212.56)"
         id="text152"><tspan
           style="fill:#000000;fill-opacity:1;fill-rule:nonzero;stroke:none;font-family:Helvetica;font-variant:normal;font-weight:normal;font-size:10;writing-mode:lr;-inkscape-font-specification:Helvetica"
           x="0 5.56 8.34"
           y="0"
           sodipodi:role="line"
           id="tspan154">1.5</tspan></text>
<text
         transform="matrix(0,1,1,0,48.96,256.66)"
         id="text156"><tspan
           style="fill:#000000;fill-opacity:1;fill-rule:nonzero;stroke:none;font-family:Helvetica;font-variant:normal;font-weight:normal;font-size:10;writing-mode:lr;-inkscape-font-specification:Helvetica"
           x="0 5.56 8.34"
           y="0"
           sodipodi:role="line"
           id="tspan158">2.0</tspan></text>
</g><g
       id="g160"><g
         id="g162"
         clip-path="url(#clipPath164)"><text
           transform="matrix(1,0,0,-1,536.12,84.81)"
           id="text168"><tspan
             style="fill:#000000;fill-opacity:1;fill-rule:nonzero;stroke:none;font-family:Helvetica;font-variant:normal;font-weight:normal;font-size:10;writing-mode:lr;-inkscape-font-specification:Helvetica"
             x="0"
             y="0"
             id="tspan170">0</tspan></text>
<text
           transform="matrix(1,0,0,-1,556.92,112.74)"
           id="text172"><tspan
             style="fill:#000000;fill-opacity:1;fill-rule:nonzero;stroke:none;font-family:Helvetica;font-variant:normal;font-weight:normal;font-size:10;writing-mode:lr;-inkscape-font-specification:Helvetica"
             x="0"
             y="0"
             id="tspan174">1</tspan></text>
<text
           transform="matrix(1,0,0,-1,577.71,140.67)"
           id="text176"><tspan
             style="fill:#000000;fill-opacity:1;fill-rule:nonzero;stroke:none;font-family:Helvetica;font-variant:normal;font-weight:normal;font-size:10;writing-mode:lr;-inkscape-font-specification:Helvetica"
             x="0"
             y="0"
             id="tspan178">2</tspan></text>
<text
           transform="matrix(1,0,0,-1,598.51,168.6)"
           id="text180"><tspan
             style="fill:#000000;fill-opacity:1;fill-rule:nonzero;stroke:none;font-family:Helvetica;font-variant:normal;font-weight:normal;font-size:10;writing-mode:lr;-inkscape-font-specification:Helvetica"
             x="0"
             y="0"
             id="tspan182">3</tspan></text>
<text
           transform="matrix(1,0,0,-1,619.3,196.53)"
           id="text184"><tspan
             style="fill:#000000;fill-opacity:1;fill-rule:nonzero;stroke:none;font-family:Helvetica;font-variant:normal;font-weight:normal;font-size:10;writing-mode:lr;-inkscape-font-specification:Helvetica"
             x="0"
             y="0"
             id="tspan186">4</tspan></text>
<text
           transform="matrix(1,0,0,-1,640.1,224.47)"
           id="text188"><tspan
             style="fill:#000000;fill-opacity:1;fill-rule:nonzero;stroke:none;font-family:Helvetica;font-variant:normal;font-weight:normal;font-size:10;writing-mode:lr;-inkscape-font-specification:Helvetica"
             x="0"
             y="0"
             id="tspan190">5</tspan></text>
<text
           transform="matrix(1,0,0,-1,660.89,252.4)"
           id="text192"><tspan
             style="fill:#000000;fill-opacity:1;fill-rule:nonzero;stroke:none;font-family:Helvetica;font-variant:normal;font-weight:normal;font-size:10;writing-mode:lr;-inkscape-font-specification:Helvetica"
             x="0"
             y="0"
             id="tspan194">6</tspan></text>
<path
           d="m 68,87.2 453.72,0"
           style="fill:none;stroke:#000000;stroke-opacity:1;stroke-width:0.75;stroke-linecap:round;stroke-linejoin:round;stroke-miterlimit:10;stroke-dasharray:none"
           id="path196" /></g></g><g
       id="g198"><text
         transform="matrix(1,0,0,-1,280.2,40.32)"
         id="text200"><tspan
           style="fill:#000000;fill-opacity:1;fill-rule:nonzero;stroke:none;font-family:Helvetica;font-variant:normal;font-weight:normal;font-size:12;writing-mode:lr;-inkscape-font-specification:Helvetica"
           x="0 8.004 11.34 15.336 25.332"
           y="0"
           sodipodi:role="line"
           id="tspan202">X (m)</tspan></text>
</g><g
       id="g204"><g
         id="g206"
         clip-path="url(#clipPath208)"><path
           d="M 521.72,87.2 646.49,254.79"
           style="fill:none;stroke:#000000;stroke-opacity:1;stroke-width:0.75;stroke-linecap:round;stroke-linejoin:round;stroke-miterlimit:10;stroke-dasharray:none"
           id="path212" /></g></g><g
       id="g214"><text
         transform="matrix(0,1,1,0,694.08,240.13)"
         id="text216"><tspan
           style="fill:#000000;fill-opacity:1;fill-rule:nonzero;stroke:none;font-family:Helvetica;font-variant:normal;font-weight:normal;font-size:12;writing-mode:lr;-inkscape-font-specification:Helvetica"
           x="0 8.004 11.34 15.336 25.332"
           y="0"
           sodipodi:role="line"
           id="tspan218">Y (m)</tspan></text>
</g><g
       id="g220"><g
         id="g222"
         clip-path="url(#clipPath224)"><path
           d="m 68,87.2 0,176.41"
           style="fill:none;stroke:#000000;stroke-opacity:1;stroke-width:0.75;stroke-linecap:round;stroke-linejoin:round;stroke-miterlimit:10;stroke-dasharray:none"
           id="path228" /></g></g><g
       id="g230"><text
         transform="matrix(0,1,1,0,20.16,128.52)"
         id="text232"><tspan
           style="fill:#000000;fill-opacity:1;fill-rule:nonzero;stroke:none;font-family:Helvetica;font-variant:normal;font-weight:normal;font-size:12;writing-mode:lr;-inkscape-font-specification:Helvetica"
           x="0 7.524 13.224 19.896 23.772 30.444 37.116 43.788 47.124 53.796 57.792 61.788 68.46 72.456 75.792 79.788 89.784"
           y="0"
           sodipodi:role="line"
           id="tspan234">Average error (m)</tspan></text>
</g><g
       id="g236"><g
         id="g238"
         clip-path="url(#clipPath240)"><path
           d="m 192.77,254.79 453.72,0"
           style="fill:none;stroke:#000000;stroke-opacity:1;stroke-width:0.75;stroke-linecap:round;stroke-linejoin:round;stroke-miterlimit:10;stroke-dasharray:none"
           id="path244" /><path
           d="m 192.77,431.2 453.72,0"
           style="fill:none;stroke:#000000;stroke-opacity:1;stroke-width:0.75;stroke-linecap:round;stroke-linejoin:round;stroke-miterlimit:10;stroke-dasharray:none"
           id="path246" /><path
           d="M 68,87.2 192.77,254.79"
           style="fill:none;stroke:#000000;stroke-opacity:1;stroke-width:0.75;stroke-linecap:round;stroke-linejoin:round;stroke-miterlimit:10;stroke-dasharray:none"
           id="path248" /><path
           sodipodi:type="star"
           style="fill:#00ff00;fill-opacity:1;stroke:#00f400;stroke-width:1.29637206;stroke-linecap:butt;stroke-linejoin:round;stroke-miterlimit:4;stroke-opacity:1;stroke-dasharray:none;stroke-dashoffset:0"
           id="path4221"
           sodipodi:sides="3"
           sodipodi:cx="154.99457"
           sodipodi:cy="376.62988"
           sodipodi:r1="10.914764"
           sodipodi:r2="5.4573822"
           sodipodi:arg1="0.52359878"
           sodipodi:arg2="1.5707963"
           inkscape:flatsided="false"
           inkscape:rounded="0"
           inkscape:randomized="0"
           d="m 164.44703,382.08727 -9.45246,0 -9.45247,-10e-6 4.72624,-8.18607 4.72623,-8.18607 4.72623,8.18607 z"
           transform="matrix(0.61781514,0,0,-0.61639921,38.792009,413.64024)"
           inkscape:transform-center-y="-2.102448" /><path
           d="M 68,263.61 192.77,431.2"
           style="fill:none;stroke:#000000;stroke-opacity:1;stroke-width:0.75;stroke-linecap:round;stroke-linejoin:round;stroke-miterlimit:10;stroke-dasharray:none"
           id="path250" /><path
           d="m 192.77,254.79 0,176.41"
           style="fill:none;stroke:#000000;stroke-opacity:1;stroke-width:0.75;stroke-linecap:round;stroke-linejoin:round;stroke-miterlimit:10;stroke-dasharray:none"
           id="path252" /><path
           d="m 646.49,254.79 0,176.41"
           style="fill:none;stroke:#000000;stroke-opacity:1;stroke-width:0.75;stroke-linecap:round;stroke-linejoin:round;stroke-miterlimit:10;stroke-dasharray:none"
           id="path254" /><path
           d="m 579.38,330.98 0,-90.16"
           style="fill:none;stroke:#000000;stroke-opacity:1;stroke-width:0.75;stroke-linecap:round;stroke-linejoin:round;stroke-miterlimit:10;stroke-dasharray:none"
           id="path258" /><path
           d="m 465.95,323.42 0,-82.6"
           style="fill:none;stroke:#010000;stroke-opacity:1;stroke-width:0.75;stroke-linecap:round;stroke-linejoin:round;stroke-miterlimit:10;stroke-dasharray:none"
           id="path260" /><path
           d="m 352.52,337.79 0,-96.97"
           style="fill:none;stroke:#010000;stroke-opacity:1;stroke-width:0.75;stroke-linecap:round;stroke-linejoin:round;stroke-miterlimit:10;stroke-dasharray:none"
           id="path262" /><path
           d="m 239.09,347.61 0,-106.79"
           style="fill:none;stroke:#010000;stroke-opacity:1;stroke-width:0.75;stroke-linecap:round;stroke-linejoin:round;stroke-miterlimit:10;stroke-dasharray:none"
           id="path264" /><path
           d="m 558.58,304.11 0,-91.22"
           style="fill:none;stroke:#0a0000;stroke-opacity:1;stroke-width:0.75;stroke-linecap:round;stroke-linejoin:round;stroke-miterlimit:10;stroke-dasharray:none"
           id="path266" /><path
           d="m 445.15,282.65 0,-69.76"
           style="fill:none;stroke:#0c0000;stroke-opacity:1;stroke-width:0.75;stroke-linecap:round;stroke-linejoin:round;stroke-miterlimit:10;stroke-dasharray:none"
           id="path268" /><path
           d="m 331.72,274.54 0,-61.65"
           style="fill:none;stroke:#0e0000;stroke-opacity:1;stroke-width:0.75;stroke-linecap:round;stroke-linejoin:round;stroke-miterlimit:10;stroke-dasharray:none"
           id="path270" /><path
           d="m 218.29,319.7 0,-106.81"
           style="fill:none;stroke:#110000;stroke-opacity:1;stroke-width:0.75;stroke-linecap:round;stroke-linejoin:round;stroke-miterlimit:10;stroke-dasharray:none"
           id="path272" /><path
           d="m 537.79,240.71 0,-55.75"
           style="fill:none;stroke:#220000;stroke-opacity:1;stroke-width:0.75;stroke-linecap:round;stroke-linejoin:round;stroke-miterlimit:10;stroke-dasharray:none"
           id="path274" /><path
           d="m 424.36,256.48 0,-71.52"
           style="fill:none;stroke:#260000;stroke-opacity:1;stroke-width:0.75;stroke-linecap:round;stroke-linejoin:round;stroke-miterlimit:10;stroke-dasharray:none"
           id="path276" /><path
           d="m 310.93,224.06 0,-39.1"
           style="fill:none;stroke:#2a0000;stroke-opacity:1;stroke-width:0.75;stroke-linecap:round;stroke-linejoin:round;stroke-miterlimit:10;stroke-dasharray:none"
           id="path278" /><path
           d="m 197.5,267.69 0,-82.73"
           style="fill:none;stroke:#2d0000;stroke-opacity:1;stroke-width:0.75;stroke-linecap:round;stroke-linejoin:round;stroke-miterlimit:10;stroke-dasharray:none"
           id="path280" /><path
           d="m 516.99,222.58 0,-65.55"
           style="fill:none;stroke:#4d0000;stroke-opacity:1;stroke-width:0.75;stroke-linecap:round;stroke-linejoin:round;stroke-miterlimit:10;stroke-dasharray:none"
           id="path284" /><path
           d="m 403.56,206.72 0,-49.69"
           style="fill:none;stroke:#530000;stroke-opacity:1;stroke-width:0.75;stroke-linecap:round;stroke-linejoin:round;stroke-miterlimit:10;stroke-dasharray:none"
           id="path286" /><path
           d="m 290.13,202.09 0,-45.06"
           style="fill:none;stroke:#580000;stroke-opacity:1;stroke-width:0.75;stroke-linecap:round;stroke-linejoin:round;stroke-miterlimit:10;stroke-dasharray:none"
           id="path288" /><path
           d="m 176.7,217 0,-59.97"
           style="fill:none;stroke:#5e0000;stroke-opacity:1;stroke-width:0.75;stroke-linecap:round;stroke-linejoin:round;stroke-miterlimit:10;stroke-dasharray:none"
           id="path290" /><path
           d="m 496.2,208.12 0,-79.02"
           style="fill:none;stroke:#820000;stroke-opacity:1;stroke-width:0.75;stroke-linecap:round;stroke-linejoin:round;stroke-miterlimit:10;stroke-dasharray:none"
           id="path292" /><path
           d="m 382.77,195.39 0,-66.29"
           style="fill:none;stroke:#890000;stroke-opacity:1;stroke-width:0.75;stroke-linecap:round;stroke-linejoin:round;stroke-miterlimit:10;stroke-dasharray:none"
           id="path294" /><path
           d="m 269.34,188.94 0,-59.84"
           style="fill:none;stroke:#910000;stroke-opacity:1;stroke-width:0.75;stroke-linecap:round;stroke-linejoin:round;stroke-miterlimit:10;stroke-dasharray:none"
           id="path296" /><path
           d="m 155.91,192.31 0,-63.21"
           style="fill:none;stroke:#980000;stroke-opacity:1;stroke-width:0.75;stroke-linecap:round;stroke-linejoin:round;stroke-miterlimit:10;stroke-dasharray:none"
           id="path298" /><path
           d="m 475.4,215.81 0,-114.64"
           style="fill:none;stroke:#c50000;stroke-opacity:1;stroke-width:0.75;stroke-linecap:round;stroke-linejoin:round;stroke-miterlimit:10;stroke-dasharray:none"
           id="path300" /><path
           d="m 361.97,242.56 0,-141.39"
           style="fill:none;stroke:#ce0000;stroke-opacity:1;stroke-width:0.75;stroke-linecap:round;stroke-linejoin:round;stroke-miterlimit:10;stroke-dasharray:none"
           id="path302" /><path
           d="m 248.54,210.1 0,-108.93"
           style="fill:none;stroke:#d70000;stroke-opacity:1;stroke-width:0.75;stroke-linecap:round;stroke-linejoin:round;stroke-miterlimit:10;stroke-dasharray:none"
           id="path304" /><path
           d="m 135.11,175.56 0,-74.39"
           style="fill:none;stroke:#e00000;stroke-opacity:1;stroke-width:0.75;stroke-linecap:round;stroke-linejoin:round;stroke-miterlimit:10;stroke-dasharray:none"
           id="path306" /><path
           d="m 576.68,328.28 5.4,0 0,5.4 -5.4,0 0,-5.4 z"
           style="fill:#000000;fill-opacity:1;fill-rule:nonzero;stroke:none"
           id="path312" /><path
           d="m 463.25,320.72 5.4,0 0,5.4 -5.4,0 0,-5.4 z"
           style="fill:#010000;fill-opacity:1;fill-rule:nonzero;stroke:none"
           id="path314" /><path
           d="m 349.82,335.09 5.4,0 0,5.4 -5.4,0 0,-5.4 z"
           style="fill:#010000;fill-opacity:1;fill-rule:nonzero;stroke:none"
           id="path316" /><path
           d="m 236.39,344.91 5.4,0 0,5.4 -5.4,0 0,-5.4 z"
           style="fill:#010000;fill-opacity:1;fill-rule:nonzero;stroke:none"
           id="path318" /><path
           d="m 555.88,301.41 5.4,0 0,5.4 -5.4,0 0,-5.4 z"
           style="fill:#0a0000;fill-opacity:1;fill-rule:nonzero;stroke:none"
           id="path320" /><path
           d="m 442.45,279.95 5.4,0 0,5.4 -5.4,0 0,-5.4 z"
           style="fill:#0c0000;fill-opacity:1;fill-rule:nonzero;stroke:none"
           id="path322" /><path
           d="m 329.02,271.84 5.4,0 0,5.4 -5.4,0 0,-5.4 z"
           style="fill:#0e0000;fill-opacity:1;fill-rule:nonzero;stroke:none"
           id="path324" /><path
           d="m 215.59,317 5.4,0 0,5.4 -5.4,0 0,-5.4 z"
           style="fill:#110000;fill-opacity:1;fill-rule:nonzero;stroke:none"
           id="path326" /><path
           d="m 535.09,238.01 5.4,0 0,5.4 -5.4,0 0,-5.4 z"
           style="fill:#220000;fill-opacity:1;fill-rule:nonzero;stroke:none"
           id="path328" /><path
           d="m 421.66,253.78 5.4,0 0,5.4 -5.4,0 0,-5.4 z"
           style="fill:#260000;fill-opacity:1;fill-rule:nonzero;stroke:none"
           id="path330" /><path
           d="m 308.23,221.36 5.4,0 0,5.4 -5.4,0 0,-5.4 z"
           style="fill:#2a0000;fill-opacity:1;fill-rule:nonzero;stroke:none"
           id="path332" /><path
           d="m 194.8,264.99 5.4,0 0,5.4 -5.4,0 0,-5.4 z"
           style="fill:#2d0000;fill-opacity:1;fill-rule:nonzero;stroke:none"
           id="path334" /><path
           d="m 514.29,219.88 5.4,0 0,5.4 -5.4,0 0,-5.4 z"
           style="fill:#4d0000;fill-opacity:1;fill-rule:nonzero;stroke:none"
           id="path338" /><path
           d="m 400.86,204.02 5.4,0 0,5.4 -5.4,0 0,-5.4 z"
           style="fill:#530000;fill-opacity:1;fill-rule:nonzero;stroke:none"
           id="path340" /><path
           d="m 287.43,199.39 5.4,0 0,5.4 -5.4,0 0,-5.4 z"
           style="fill:#580000;fill-opacity:1;fill-rule:nonzero;stroke:none"
           id="path342" /><path
           d="m 174,214.3 5.4,0 0,5.4 -5.4,0 0,-5.4 z"
           style="fill:#5e0000;fill-opacity:1;fill-rule:nonzero;stroke:none"
           id="path344" /><path
           d="m 493.5,205.42 5.4,0 0,5.4 -5.4,0 0,-5.4 z"
           style="fill:#820000;fill-opacity:1;fill-rule:nonzero;stroke:none"
           id="path346" /><path
           d="m 380.07,192.69 5.4,0 0,5.4 -5.4,0 0,-5.4 z"
           style="fill:#890000;fill-opacity:1;fill-rule:nonzero;stroke:none"
           id="path348" /><path
           d="m 266.64,186.24 5.4,0 0,5.4 -5.4,0 0,-5.4 z"
           style="fill:#910000;fill-opacity:1;fill-rule:nonzero;stroke:none"
           id="path350" /><path
           d="m 153.21,189.61 5.4,0 0,5.4 -5.4,0 0,-5.4 z"
           style="fill:#980000;fill-opacity:1;fill-rule:nonzero;stroke:none"
           id="path352" /><path
           d="m 472.7,213.11 5.4,0 0,5.4 -5.4,0 0,-5.4 z"
           style="fill:#c50000;fill-opacity:1;fill-rule:nonzero;stroke:none"
           id="path354" /><path
           d="m 359.27,239.86 5.4,0 0,5.4 -5.4,0 0,-5.4 z"
           style="fill:#ce0000;fill-opacity:1;fill-rule:nonzero;stroke:none"
           id="path356" /><path
           d="m 245.84,207.4 5.4,0 0,5.4 -5.4,0 0,-5.4 z"
           style="fill:#d70000;fill-opacity:1;fill-rule:nonzero;stroke:none"
           id="path358" /><path
           d="m 132.41,172.86 5.4,0 0,5.4 -5.4,0 0,-5.4 z"
           style="fill:#e00000;fill-opacity:1;fill-rule:nonzero;stroke:none"
           id="path360" /><path
           d="m 68,263.61 453.72,0"
           style="fill:none;stroke:#000000;stroke-opacity:1;stroke-width:0.75;stroke-linecap:round;stroke-linejoin:round;stroke-miterlimit:10;stroke-dasharray:none"
           id="path364" /><path
           d="M 521.72,263.61 646.49,431.2"
           style="fill:none;stroke:#000000;stroke-opacity:1;stroke-width:0.75;stroke-linecap:round;stroke-linejoin:round;stroke-miterlimit:10;stroke-dasharray:none"
           id="path366" /><path
           d="m 521.72,87.2 0,176.41"
           style="fill:none;stroke:#000000;stroke-opacity:1;stroke-width:0.75;stroke-linecap:round;stroke-linejoin:round;stroke-miterlimit:10;stroke-dasharray:none"
           id="path368" /><text
           transform="matrix(1,0,0,-1,142.31,173.17)"
           id="text370"><tspan
             style="fill:#000000;fill-opacity:1;fill-rule:nonzero;stroke:none;font-family:Helvetica;font-variant:normal;font-weight:normal;font-size:10;writing-mode:lr;-inkscape-font-specification:Helvetica"
             x="0 5.56 8.34 13.9 19.46 25.02 30.58 36.14 41.7"
             y="0"
             sodipodi:role="line"
             id="tspan372">0.8434749</tspan></text>
<text
           transform="matrix(1,0,0,-1,255.74,207.7)"
           id="text374"><tspan
             style="fill:#000000;fill-opacity:1;fill-rule:nonzero;stroke:none;font-family:Helvetica;font-variant:normal;font-weight:normal;font-size:10;writing-mode:lr;-inkscape-font-specification:Helvetica"
             x="0 5.56 8.34 13.9 19.46 25.02 30.58"
             y="0"
             sodipodi:role="line"
             id="tspan376">1.23497</tspan></text>
<text
           transform="matrix(1,0,0,-1,369.17,240.17)"
           id="text378"><tspan
             style="fill:#000000;fill-opacity:1;fill-rule:nonzero;stroke:none;font-family:Helvetica;font-variant:normal;font-weight:normal;font-size:10;writing-mode:lr;-inkscape-font-specification:Helvetica"
             x="0 5.56 8.34 13.9 19.46 25.02 30.58 36.14"
             y="0"
             sodipodi:role="line"
             id="tspan380">1.603051</tspan></text>
<text
           transform="matrix(1,0,0,-1,482.6,213.41)"
           id="text382"><tspan
             style="fill:#000000;fill-opacity:1;fill-rule:nonzero;stroke:none;font-family:Helvetica;font-variant:normal;font-weight:normal;font-size:10;writing-mode:lr;-inkscape-font-specification:Helvetica"
             x="0 5.56 8.34 13.9 19.46 25.02 30.58 36.14"
             y="0"
             sodipodi:role="line"
             id="tspan384">1.299703</tspan></text>
<text
           transform="matrix(1,0,0,-1,163.11,189.92)"
           id="text386"><tspan
             style="fill:#000000;fill-opacity:1;fill-rule:nonzero;stroke:none;font-family:Helvetica;font-variant:normal;font-weight:normal;font-size:10;writing-mode:lr;-inkscape-font-specification:Helvetica"
             x="0 5.56 8.34 13.9 19.46 25.02 30.58 36.14 41.7"
             y="0"
             sodipodi:role="line"
             id="tspan388">0.7167032</tspan></text>
<text
           transform="matrix(1,0,0,-1,276.54,186.54)"
           id="text390"><tspan
             style="fill:#000000;fill-opacity:1;fill-rule:nonzero;stroke:none;font-family:Helvetica;font-variant:normal;font-weight:normal;font-size:10;writing-mode:lr;-inkscape-font-specification:Helvetica"
             x="0 5.56 8.34 13.9 19.46 25.02 30.58 36.14 41.7"
             y="0"
             sodipodi:role="line"
             id="tspan392">0.6784162</tspan></text>
<text
           transform="matrix(1,0,0,-1,389.97,193)"
           id="text394"><tspan
             style="fill:#000000;fill-opacity:1;fill-rule:nonzero;stroke:none;font-family:Helvetica;font-variant:normal;font-weight:normal;font-size:10;writing-mode:lr;-inkscape-font-specification:Helvetica"
             x="0 5.56 8.34 13.9 19.46 25.02 30.58 36.14 41.7"
             y="0"
             sodipodi:role="line"
             id="tspan396">0.7515674</tspan></text>
<text
           transform="matrix(1,0,0,-1,503.4,205.73)"
           id="text398"><tspan
             style="fill:#000000;fill-opacity:1;fill-rule:nonzero;stroke:none;font-family:Helvetica;font-variant:normal;font-weight:normal;font-size:10;writing-mode:lr;-inkscape-font-specification:Helvetica"
             x="0 5.56 8.34 13.9 19.46 25.02 30.58 36.14 41.7"
             y="0"
             sodipodi:role="line"
             id="tspan400">0.8959203</tspan></text>
<text
           transform="matrix(1,0,0,-1,183.9,214.61)"
           id="text402"><tspan
             style="fill:#000000;fill-opacity:1;fill-rule:nonzero;stroke:none;font-family:Helvetica;font-variant:normal;font-weight:normal;font-size:10;writing-mode:lr;-inkscape-font-specification:Helvetica"
             x="0 5.56 8.34 13.9 19.46 25.02 30.58 36.14 41.7"
             y="0"
             sodipodi:role="line"
             id="tspan404">0.6799301</tspan></text>
<text
           transform="matrix(1,0,0,-1,297.33,199.69)"
           id="text406"><tspan
             style="fill:#000000;fill-opacity:1;fill-rule:nonzero;stroke:none;font-family:Helvetica;font-variant:normal;font-weight:normal;font-size:10;writing-mode:lr;-inkscape-font-specification:Helvetica"
             x="0 5.56 8.34 13.9 19.46 25.02 30.58 36.14"
             y="0"
             sodipodi:role="line"
             id="tspan408">0.510834</tspan></text>
<text
           transform="matrix(1,0,0,-1,410.76,204.33)"
           id="text410"><tspan
             style="fill:#000000;fill-opacity:1;fill-rule:nonzero;stroke:none;font-family:Helvetica;font-variant:normal;font-weight:normal;font-size:10;writing-mode:lr;-inkscape-font-specification:Helvetica"
             x="0 5.56 8.34 13.9 19.46 25.02 30.58 36.14"
             y="0"
             sodipodi:role="line"
             id="tspan412">0.563357</tspan></text>
<text
           transform="matrix(1,0,0,-1,524.19,220.19)"
           id="text414"><tspan
             style="fill:#000000;fill-opacity:1;fill-rule:nonzero;stroke:none;font-family:Helvetica;font-variant:normal;font-weight:normal;font-size:10;writing-mode:lr;-inkscape-font-specification:Helvetica"
             x="0 5.56 8.34 13.9 19.46 25.02 30.58 36.14 41.7"
             y="0"
             sodipodi:role="line"
             id="tspan416">0.7432035</tspan></text>
<text
           transform="matrix(1,0,0,-1,204.7,265.3)"
           id="text418"><tspan
             style="fill:#000000;fill-opacity:1;fill-rule:nonzero;stroke:none;font-family:Helvetica;font-variant:normal;font-weight:normal;font-size:10;writing-mode:lr;-inkscape-font-specification:Helvetica"
             x="0 5.56 8.34 13.9 19.46 25.02 30.58 36.14"
             y="0"
             sodipodi:role="line"
             id="tspan420">0.937953</tspan></text>
<text
           transform="matrix(1,0,0,-1,318.13,221.66)"
           id="text422"><tspan
             style="fill:#000000;fill-opacity:1;fill-rule:nonzero;stroke:none;font-family:Helvetica;font-variant:normal;font-weight:normal;font-size:10;writing-mode:lr;-inkscape-font-specification:Helvetica"
             x="0 5.56 8.34 13.9 19.46 25.02 30.58 36.14 41.7"
             y="0"
             sodipodi:role="line"
             id="tspan424">0.4432232</tspan></text>
<text
           transform="matrix(1,0,0,-1,431.56,254.08)"
           id="text426"><tspan
             style="fill:#000000;fill-opacity:1;fill-rule:nonzero;stroke:none;font-family:Helvetica;font-variant:normal;font-weight:normal;font-size:10;writing-mode:lr;-inkscape-font-specification:Helvetica"
             x="0 5.56 8.34 13.9 19.46 25.02 30.58 36.14"
             y="0"
             sodipodi:role="line"
             id="tspan428">0.810777</tspan></text>
<text
           transform="matrix(1,0,0,-1,544.99,238.32)"
           id="text430"><tspan
             style="fill:#000000;fill-opacity:1;fill-rule:nonzero;stroke:none;font-family:Helvetica;font-variant:normal;font-weight:normal;font-size:10;writing-mode:lr;-inkscape-font-specification:Helvetica"
             x="0 5.56 8.34 13.9 19.46 25.02 30.58 36.14 41.7"
             y="0"
             sodipodi:role="line"
             id="tspan432">0.6320332</tspan></text>
<text
           transform="matrix(1,0,0,-1,225.49,317.31)"
           id="text434"><tspan
             style="fill:#000000;fill-opacity:1;fill-rule:nonzero;stroke:none;font-family:Helvetica;font-variant:normal;font-weight:normal;font-size:10;writing-mode:lr;-inkscape-font-specification:Helvetica"
             x="0 5.56 8.34 13.9 19.46 25.02 30.58 36.14"
             y="0"
             sodipodi:role="line"
             id="tspan436">1.210926</tspan></text>
<text
           transform="matrix(1,0,0,-1,338.92,272.14)"
           id="text438"><tspan
             style="fill:#000000;fill-opacity:1;fill-rule:nonzero;stroke:none;font-family:Helvetica;font-variant:normal;font-weight:normal;font-size:10;writing-mode:lr;-inkscape-font-specification:Helvetica"
             x="0 5.56 8.34 13.9 19.46 25.02 30.58 36.14 41.7"
             y="0"
             sodipodi:role="line"
             id="tspan440">0.6988774</tspan></text>
<text
           transform="matrix(1,0,0,-1,452.35,280.25)"
           id="text442"><tspan
             style="fill:#000000;fill-opacity:1;fill-rule:nonzero;stroke:none;font-family:Helvetica;font-variant:normal;font-weight:normal;font-size:10;writing-mode:lr;-inkscape-font-specification:Helvetica"
             x="0 5.56 8.34 13.9 19.46 25.02 30.58 36.14 41.7"
             y="0"
             sodipodi:role="line"
             id="tspan444">0.7908287</tspan></text>
<path
           sodipodi:type="star"
           style="fill:#00ff00;fill-opacity:1;stroke:#00f400;stroke-width:1.29637206;stroke-linecap:butt;stroke-linejoin:round;stroke-miterlimit:4;stroke-opacity:1;stroke-dasharray:none;stroke-dashoffset:0"
           id="path4221-1-7"
           sodipodi:sides="3"
           sodipodi:cx="154.99457"
           sodipodi:cy="376.62988"
           sodipodi:r1="10.914764"
           sodipodi:r2="5.4573822"
           sodipodi:arg1="0.52359878"
           sodipodi:arg2="1.5707963"
           inkscape:flatsided="false"
           inkscape:rounded="0"
           inkscape:randomized="0"
           d="m 164.44703,382.08727 -9.45246,0 -9.45247,-10e-6 4.72624,-8.18607 4.72623,-8.18607 4.72623,8.18607 z"
           transform="matrix(0.61781514,0,0,-0.61639921,476.44201,542.73022)"
           inkscape:transform-center-y="-1.3455726" /><text
           transform="matrix(1,0,0,-1,565.78,301.72)"
           id="text446"><tspan
             style="fill:#000000;fill-opacity:1;fill-rule:nonzero;stroke:none;font-family:Helvetica;font-variant:normal;font-weight:normal;font-size:10;writing-mode:lr;-inkscape-font-specification:Helvetica"
             x="0 5.56 8.34 13.9 19.46 25.02 30.58 36.14"
             y="0"
             sodipodi:role="line"
             id="tspan448">1.034162</tspan></text>
<text
           transform="matrix(1,0,0,-1,246.29,345.21)"
           id="text450"><tspan
             style="fill:#000000;fill-opacity:1;fill-rule:nonzero;stroke:none;font-family:Helvetica;font-variant:normal;font-weight:normal;font-size:10;writing-mode:lr;-inkscape-font-specification:Helvetica"
             x="0 5.56 8.34 13.9 19.46 25.02 30.58 36.14"
             y="0"
             sodipodi:role="line"
             id="tspan452">1.210622</tspan></text>
<text
           transform="matrix(1,0,0,-1,359.72,335.4)"
           id="text454"><tspan
             style="fill:#000000;fill-opacity:1;fill-rule:nonzero;stroke:none;font-family:Helvetica;font-variant:normal;font-weight:normal;font-size:10;writing-mode:lr;-inkscape-font-specification:Helvetica"
             x="0 5.56 8.34 13.9 19.46 25.02 30.58 36.14"
             y="0"
             sodipodi:role="line"
             id="tspan456">1.099314</tspan></text>
<text
           transform="matrix(1,0,0,-1,473.15,321.03)"
           id="text458"><tspan
             style="fill:#000000;fill-opacity:1;fill-rule:nonzero;stroke:none;font-family:Helvetica;font-variant:normal;font-weight:normal;font-size:10;writing-mode:lr;-inkscape-font-specification:Helvetica"
             x="0 5.56 8.34 13.9 19.46 25.02 30.58 36.14 41.7"
             y="0"
             sodipodi:role="line"
             id="tspan460">0.9364259</tspan></text>
<text
           transform="matrix(1,0,0,-1,586.58,328.59)"
           id="text462"><tspan
             style="fill:#000000;fill-opacity:1;fill-rule:nonzero;stroke:none;font-family:Helvetica;font-variant:normal;font-weight:normal;font-size:10;writing-mode:lr;-inkscape-font-specification:Helvetica"
             x="0 5.56 8.34 13.9 19.46 25.02 30.58 36.14"
             y="0"
             sodipodi:role="line"
             id="tspan464">1.022164</tspan></text>
<path
           sodipodi:type="star"
           style="fill:#00ff00;fill-opacity:1;stroke:#00f400;stroke-width:1.43848133;stroke-linecap:butt;stroke-linejoin:round;stroke-miterlimit:4;stroke-opacity:1;stroke-dasharray:none;stroke-dashoffset:0"
           id="path4221-1"
           sodipodi:sides="3"
           sodipodi:cx="154.99457"
           sodipodi:cy="376.62988"
           sodipodi:r1="10.914764"
           sodipodi:r2="5.4573822"
           sodipodi:arg1="0.52359878"
           sodipodi:arg2="1.5707963"
           inkscape:flatsided="false"
           inkscape:rounded="0"
           inkscape:randomized="0"
           d="m 164.44703,382.08727 -9.45246,0 -9.45247,-10e-6 4.72624,-8.18607 4.72623,-8.18607 4.72623,8.18607 z"
           transform="matrix(0.55708686,0,0,-0.55519894,253.88457,445.24317)"
           inkscape:transform-center-y="1.5149613" /></g></g></g></svg>